<svg width="16" height="16" viewBox="0 0 16 16" fill="none" xmlns="http://www.w3.org/2000/svg">
<path d="M12.9833 7.53002L10.3967 4.94335C10.1367 4.68335 10.1367 4.26335 10.3967 4.00335C10.6567 3.74335 11.0767 3.74335 11.3367 4.00335L14.3967 7.06335C14.6567 7.32335 14.6567 7.74335 14.3967 8.00335L12.4767 9.92335L11.5367 8.97668L12.9833 7.53002ZM1.60333 2.81668L3.92999 5.14335L2.00999 7.06335C1.74999 7.32335 1.74999 7.74335 2.00999 8.00335L5.06999 11.0634C5.32999 11.3234 5.74999 11.3234 6.00999 11.0634C6.26999 10.8034 6.26999 10.3834 6.00999 10.1234L3.42333 7.53002L4.86999 6.08335L12.9167 14.13C13.1767 14.39 13.5967 14.39 13.8567 14.13C14.1167 13.87 14.1167 13.45 13.8567 13.19L2.54333 1.87002C2.28333 1.61002 1.86333 1.61002 1.60333 1.87002C1.34333 2.13668 1.34333 2.55668 1.60333 2.81668Z" fill="#79829A"/>
</svg>
