<svg width="20" height="20" viewBox="0 0 20 20" fill="none" xmlns="http://www.w3.org/2000/svg">
<path d="M13.75 2.354C12.3 2.354 10.9083 3.029 9.99996 4.09567C9.09163 3.029 7.69996 2.354 6.24996 2.354C3.68329 2.354 1.66663 4.37067 1.66663 6.93734C1.66663 10.0873 4.49996 12.654 8.79163 16.554L9.99996 17.6457L11.2083 16.5457C15.5 12.654 18.3333 10.0873 18.3333 6.93734C18.3333 4.37067 16.3166 2.354 13.75 2.354ZM10.0833 15.3123L9.99996 15.3957L9.91663 15.3123C5.94996 11.7207 3.33329 9.34567 3.33329 6.93734C3.33329 5.27067 4.58329 4.02067 6.24996 4.02067C7.53329 4.02067 8.78329 4.84567 9.22496 5.98734H10.7833C11.2166 4.84567 12.4666 4.02067 13.75 4.02067C15.4166 4.02067 16.6666 5.27067 16.6666 6.93734C16.6666 9.34567 14.05 11.7207 10.0833 15.3123Z" fill="#79829A"/>
</svg>
