<svg width="25" height="25" viewBox="0 0 25 25" fill="none" xmlns="http://www.w3.org/2000/svg">
<g clip-path="url(#clip0_2831_19134)">
<path fill-rule="evenodd" clip-rule="evenodd" d="M12.4642 0.5C5.84833 0.5 0.5 5.88776 0.5 12.5531C0.5 17.8811 3.92686 22.3912 8.68082 23.9874C9.27518 24.1074 9.4929 23.7281 9.4929 23.409C9.4929 23.1296 9.47331 22.1718 9.47331 21.1738C6.14514 21.8923 5.45208 19.737 5.45208 19.737C4.91722 18.3401 4.12473 17.9811 4.12473 17.9811C3.03543 17.2427 4.20408 17.2427 4.20408 17.2427C5.41241 17.3225 6.04645 18.4799 6.04645 18.4799C7.11592 20.3157 8.83926 19.797 9.53257 19.4776C9.63151 18.6993 9.94865 18.1606 10.2854 17.8613C7.63094 17.5819 4.83812 16.5442 4.83812 11.9144C4.83812 10.5974 5.31322 9.51984 6.06604 8.6818C5.94727 8.38253 5.53118 7.14506 6.18506 5.48882C6.18506 5.48882 7.19527 5.16947 9.47306 6.72604C10.4483 6.4622 11.454 6.32799 12.4642 6.32686C13.4744 6.32686 14.5042 6.46669 15.4552 6.72604C17.7332 5.16947 18.7434 5.48882 18.7434 5.48882C19.3973 7.14506 18.981 8.38253 18.8622 8.6818C19.6349 9.51984 20.0904 10.5974 20.0904 11.9144C20.0904 16.5442 17.2976 17.5618 14.6233 17.8613C15.0592 18.2404 15.4353 18.9587 15.4353 20.0962C15.4353 21.7126 15.4158 23.0098 15.4158 23.4087C15.4158 23.7281 15.6337 24.1074 16.2278 23.9877C20.9818 22.3909 24.4087 17.8811 24.4087 12.5531C24.4282 5.88776 19.0603 0.5 12.4642 0.5Z" fill="#24292F"/>
</g>
<defs>
<clipPath id="clip0_2831_19134">
<rect width="24" height="24" fill="white" transform="translate(0.5 0.5)"/>
</clipPath>
</defs>
</svg>
