<svg width="24" height="25" viewBox="0 0 24 25" fill="none" xmlns="http://www.w3.org/2000/svg">
<g id="logo_GitHub" clip-path="url(#clip0_2853_19466)">
<path id="Vector" fill-rule="evenodd" clip-rule="evenodd" d="M11.9642 0.5C5.34833 0.5 0 5.88776 0 12.5531C0 17.8811 3.42686 22.3912 8.18082 23.9874C8.77518 24.1074 8.9929 23.7281 8.9929 23.409C8.9929 23.1296 8.97331 22.1718 8.97331 21.1738C5.64514 21.8923 4.95208 19.737 4.95208 19.737C4.41722 18.3401 3.62473 17.9811 3.62473 17.9811C2.53543 17.2427 3.70408 17.2427 3.70408 17.2427C4.91241 17.3225 5.54645 18.4799 5.54645 18.4799C6.61592 20.3157 8.33926 19.797 9.03257 19.4776C9.13151 18.6993 9.44865 18.1606 9.78539 17.8613C7.13094 17.5819 4.33812 16.5442 4.33812 11.9144C4.33812 10.5974 4.81322 9.51984 5.56604 8.6818C5.44727 8.38253 5.03118 7.14506 5.68506 5.48882C5.68506 5.48882 6.69527 5.16947 8.97306 6.72604C9.94827 6.4622 10.954 6.32799 11.9642 6.32686C12.9744 6.32686 14.0042 6.46669 14.9552 6.72604C17.2332 5.16947 18.2434 5.48882 18.2434 5.48882C18.8973 7.14506 18.481 8.38253 18.3622 8.6818C19.1349 9.51984 19.5904 10.5974 19.5904 11.9144C19.5904 16.5442 16.7976 17.5618 14.1233 17.8613C14.5592 18.2404 14.9353 18.9587 14.9353 20.0962C14.9353 21.7126 14.9158 23.0098 14.9158 23.4087C14.9158 23.7281 15.1337 24.1074 15.7278 23.9877C20.4818 22.3909 23.9087 17.8811 23.9087 12.5531C23.9282 5.88776 18.5603 0.5 11.9642 0.5Z" fill="#24292F"/>
</g>
<defs>
<clipPath id="clip0_2853_19466">
<rect width="24" height="24" fill="white" transform="translate(0 0.5)"/>
</clipPath>
</defs>
</svg>
